<svg width="25" height="24" viewBox="0 0 25 24" fill="none" xmlns="http://www.w3.org/2000/svg">
<path d="M16.0306 18.9693C16.1003 19.039 16.1556 19.1217 16.1933 19.2128C16.231 19.3038 16.2504 19.4014 16.2504 19.4999C16.2504 19.5985 16.231 19.6961 16.1933 19.7871C16.1556 19.8781 16.1003 19.9609 16.0306 20.0306C15.9609 20.1002 15.8782 20.1555 15.7872 20.1932C15.6961 20.2309 15.5985 20.2503 15.5 20.2503C15.4014 20.2503 15.3039 20.2309 15.2128 20.1932C15.1218 20.1555 15.039 20.1002 14.9694 20.0306L7.46935 12.5306C7.39962 12.4609 7.3443 12.3782 7.30656 12.2871C7.26882 12.1961 7.24939 12.0985 7.24939 11.9999C7.24939 11.9014 7.26882 11.8038 7.30656 11.7127C7.3443 11.6217 7.39962 11.539 7.46935 11.4693L14.9694 3.9693C15.1101 3.82857 15.301 3.74951 15.5 3.74951C15.699 3.74951 15.8899 3.82857 16.0306 3.9693C16.1713 4.11003 16.2504 4.30091 16.2504 4.49993C16.2504 4.69895 16.1713 4.88982 16.0306 5.03055L9.06029 11.9999L16.0306 18.9693Z" fill="white"/>
</svg>
