<svg width="17" height="18" viewBox="0 0 17 18" fill="none" xmlns="http://www.w3.org/2000/svg">
<path d="M8.35388 5.26013C7.6122 5.26013 6.88718 5.48007 6.27049 5.89212C5.65381 6.30418 5.17316 6.88985 4.88933 7.57507C4.6055 8.26029 4.53124 9.01429 4.67594 9.74172C4.82063 10.4691 5.17778 11.1373 5.70223 11.6618C6.22668 12.1862 6.89486 12.5434 7.62229 12.6881C8.34972 12.8328 9.10372 12.7585 9.78894 12.4747C10.4742 12.1909 11.0598 11.7102 11.4719 11.0935C11.8839 10.4768 12.1039 9.75181 12.1039 9.01013C12.1028 8.01589 11.7074 7.06266 11.0044 6.35962C10.3014 5.65659 9.34813 5.26117 8.35388 5.26013ZM8.35388 11.5101C7.85943 11.5101 7.37608 11.3635 6.96496 11.0888C6.55383 10.8141 6.2334 10.4237 6.04418 9.96684C5.85496 9.51003 5.80546 9.00736 5.90192 8.52241C5.99838 8.03745 6.23648 7.592 6.58611 7.24236C6.93575 6.89273 7.3812 6.65463 7.86616 6.55817C8.35111 6.46171 8.85378 6.51121 9.31059 6.70043C9.76741 6.88965 10.1579 7.21008 10.4326 7.62121C10.7073 8.03233 10.8539 8.51568 10.8539 9.01013C10.8539 9.67317 10.5905 10.3091 10.1216 10.7779C9.65281 11.2467 9.01692 11.5101 8.35388 11.5101ZM12.1039 0.885132H4.60388C3.44394 0.886373 2.33186 1.34771 1.51166 2.16791C0.691457 2.98811 0.230123 4.10019 0.228882 5.26013V12.7601C0.230123 13.9201 0.691457 15.0322 1.51166 15.8524C2.33186 16.6726 3.44394 17.1339 4.60388 17.1351H12.1039C13.2638 17.1339 14.3759 16.6726 15.1961 15.8524C16.0163 15.0322 16.4776 13.9201 16.4789 12.7601V5.26013C16.4776 4.10019 16.0163 2.98811 15.1961 2.16791C14.3759 1.34771 13.2638 0.886373 12.1039 0.885132ZM15.2289 12.7601C15.2289 13.5889 14.8996 14.3838 14.3136 14.9698C13.7275 15.5559 12.9327 15.8851 12.1039 15.8851H4.60388C3.77508 15.8851 2.98022 15.5559 2.39417 14.9698C1.80812 14.3838 1.47888 13.5889 1.47888 12.7601V5.26013C1.47888 4.43133 1.80812 3.63647 2.39417 3.05042C2.98022 2.46437 3.77508 2.13513 4.60388 2.13513H12.1039C12.9327 2.13513 13.7275 2.46437 14.3136 3.05042C14.8996 3.63647 15.2289 4.43133 15.2289 5.26013V12.7601ZM13.3539 4.94763C13.3539 5.13305 13.2989 5.31431 13.1959 5.46848C13.0929 5.62265 12.9465 5.74281 12.7751 5.81377C12.6038 5.88473 12.4153 5.90329 12.2335 5.86712C12.0516 5.83094 11.8846 5.74166 11.7535 5.61054C11.6224 5.47943 11.5331 5.31239 11.4969 5.13053C11.4607 4.94867 11.4793 4.76017 11.5502 4.58887C11.6212 4.41756 11.7414 4.27114 11.8955 4.16813C12.0497 4.06511 12.231 4.01013 12.4164 4.01013C12.665 4.01013 12.9035 4.1089 13.0793 4.28472C13.2551 4.46053 13.3539 4.69899 13.3539 4.94763Z" fill="white"/>
</svg>
