<svg width="17" height="17" viewBox="0 0 17 17" fill="none" xmlns="http://www.w3.org/2000/svg">
<path d="M15.3727 11.3797L11.6922 9.73043L11.682 9.72575C11.491 9.64402 11.2825 9.61123 11.0756 9.63033C10.8687 9.64942 10.6698 9.71981 10.4969 9.83512C10.4765 9.84857 10.457 9.86317 10.4383 9.87887L8.53673 11.5C7.33204 10.9148 6.08829 9.68043 5.50313 8.49137L7.12657 6.5609C7.14219 6.54137 7.15704 6.52184 7.1711 6.50075C7.28394 6.32833 7.35239 6.13068 7.37039 5.92541C7.38838 5.72014 7.35534 5.5136 7.27423 5.32418V5.31481L5.62032 1.62809C5.51309 1.38064 5.3287 1.17451 5.09468 1.04046C4.86067 0.906419 4.58958 0.851652 4.32188 0.884339C3.26326 1.02364 2.29155 1.54353 1.58824 2.34691C0.884919 3.15029 0.498093 4.18222 0.500007 5.24996C0.500007 11.4531 5.54688 16.5 11.75 16.5C12.8177 16.5019 13.8497 16.1151 14.6531 15.4117C15.4564 14.7084 15.9763 13.7367 16.1156 12.6781C16.1484 12.4105 16.0937 12.1395 15.9598 11.9055C15.8259 11.6715 15.62 11.487 15.3727 11.3797ZM11.75 15.25C9.09873 15.2471 6.55687 14.1926 4.68214 12.3178C2.8074 10.4431 1.7529 7.90124 1.75001 5.24996C1.74707 4.48706 2.02192 3.74918 2.52324 3.17411C3.02456 2.59904 3.71806 2.22611 4.47423 2.12496C4.47392 2.12808 4.47392 2.13122 4.47423 2.13434L6.11485 5.80621L4.50001 7.73903C4.48362 7.75789 4.46873 7.778 4.45548 7.79918C4.33791 7.97959 4.26894 8.1873 4.25525 8.4022C4.24157 8.61709 4.28362 8.83188 4.37735 9.02575C5.08516 10.4734 6.54376 11.9211 8.00704 12.6281C8.20232 12.7209 8.41835 12.7615 8.63403 12.7459C8.8497 12.7303 9.05763 12.659 9.23751 12.539C9.25757 12.5255 9.27687 12.5109 9.29532 12.4953L11.1945 10.875L14.8664 12.5195C14.8664 12.5195 14.8727 12.5195 14.875 12.5195C14.7751 13.2767 14.4027 13.9716 13.8275 14.4742C13.2524 14.9767 12.5138 15.2525 11.75 15.25Z" fill="white"/>
</svg>
