<svg width="22" height="20" viewBox="0 0 22 20" fill="none" xmlns="http://www.w3.org/2000/svg">
<path d="M21.4576 0.95514C21.3414 0.854798 21.2 0.788064 21.0487 0.762127C20.8974 0.736191 20.7419 0.752035 20.5989 0.807953L1.59949 8.24327C1.33023 8.34797 1.10226 8.53731 0.949919 8.78279C0.797576 9.02826 0.729099 9.31658 0.754798 9.60434C0.780496 9.8921 0.898979 10.1637 1.09241 10.3783C1.28584 10.5929 1.54375 10.7389 1.8273 10.7942L6.75011 11.7608V17.2498C6.74915 17.5488 6.838 17.8412 7.00515 18.0891C7.17231 18.337 7.41007 18.529 7.68761 18.6401C7.96473 18.7533 8.26949 18.7805 8.56225 18.7181C8.85501 18.6557 9.12224 18.5067 9.32918 18.2905L11.7029 15.8286L15.4689 19.1248C15.7406 19.3658 16.091 19.4992 16.4542 19.4998C16.6133 19.4997 16.7715 19.4747 16.9229 19.4258C17.1704 19.3472 17.3929 19.2053 17.5684 19.014C17.744 18.8227 17.8663 18.5887 17.9232 18.3355L21.7286 1.78108C21.7626 1.63178 21.7554 1.47603 21.7076 1.33053C21.6599 1.18503 21.5735 1.05527 21.4576 0.95514ZM15.7257 4.33014L7.32668 10.3451L2.67668 9.43295L15.7257 4.33014ZM8.25011 17.2498V12.7986L10.5742 14.8367L8.25011 17.2498ZM16.4561 17.9998L8.7048 11.203L19.8611 3.20702L16.4561 17.9998Z" fill="white"/>
</svg>
