<svg width="20" height="21" viewBox="0 0 20 21" fill="none" xmlns="http://www.w3.org/2000/svg">
<path d="M15.5856 12.0787L12.5856 10.5787C12.4675 10.5199 12.3359 10.4933 12.2043 10.5015C12.0726 10.5097 11.9454 10.5525 11.8356 10.6256L10.4584 11.5444C9.82617 11.1968 9.30591 10.6766 8.95837 10.0444L9.87712 8.66719C9.95021 8.55734 9.99303 8.43016 10.0013 8.29848C10.0095 8.1668 9.98284 8.03528 9.92399 7.91719L8.42399 4.91719C8.36182 4.79163 8.26572 4.686 8.14658 4.61226C8.02745 4.53853 7.89004 4.49964 7.74993 4.5C6.75537 4.5 5.80154 4.89509 5.09828 5.59835C4.39502 6.30161 3.99993 7.25544 3.99993 8.25C4.00241 10.4373 4.8724 12.5343 6.41904 14.0809C7.96568 15.6275 10.0627 16.4975 12.2499 16.5C12.7424 16.5 13.23 16.403 13.685 16.2145C14.14 16.0261 14.5534 15.7499 14.9016 15.4017C15.2498 15.0534 15.526 14.64 15.7145 14.1851C15.9029 13.7301 15.9999 13.2425 15.9999 12.75C16 12.6107 15.9613 12.4741 15.8881 12.3555C15.8149 12.2369 15.7102 12.1411 15.5856 12.0787ZM12.2499 15C10.4603 14.998 8.74459 14.2862 7.47915 13.0208C6.21371 11.7553 5.50192 10.0396 5.49993 8.25C5.49979 7.7298 5.6799 7.22562 6.00961 6.82326C6.33933 6.4209 6.79828 6.14521 7.30837 6.04313L8.38462 8.19938L7.46868 9.5625C7.40024 9.66517 7.35818 9.78314 7.34624 9.90596C7.3343 10.0288 7.35285 10.1526 7.40024 10.2666C7.93685 11.5419 8.95145 12.5565 10.2268 13.0931C10.3411 13.1426 10.4659 13.1629 10.5899 13.1521C10.714 13.1413 10.8334 13.0998 10.9374 13.0312L12.3071 12.1181L14.4634 13.1944C14.3605 13.705 14.0836 14.1642 13.6799 14.4935C13.2763 14.8228 12.7709 15.0018 12.2499 15ZM9.99993 0.75C8.31662 0.749633 6.66188 1.18508 5.19679 2.01396C3.7317 2.84285 2.50616 4.03692 1.63947 5.47997C0.772772 6.92301 0.294445 8.56587 0.251045 10.2486C0.207644 11.9314 0.600649 13.5967 1.39181 15.0825L0.327743 18.2747C0.239604 18.539 0.226813 18.8226 0.290804 19.0938C0.354795 19.3649 0.493039 19.6129 0.690042 19.8099C0.887044 20.0069 1.13502 20.1451 1.40618 20.2091C1.67733 20.2731 1.96095 20.2603 2.22524 20.1722L5.41743 19.1081C6.72503 19.8036 8.17388 20.1921 9.65402 20.244C11.1342 20.2959 12.6067 20.01 13.9598 19.4079C15.3129 18.8057 16.5111 17.9033 17.4634 16.769C18.4156 15.6346 19.097 14.2983 19.4557 12.8613C19.8144 11.4244 19.841 9.92456 19.5335 8.47578C19.226 7.02701 18.5925 5.66732 17.6811 4.49992C16.7697 3.33253 15.6043 2.38811 14.2733 1.73836C12.9424 1.08861 11.481 0.750608 9.99993 0.75ZM9.99993 18.75C8.5496 18.751 7.12471 18.3691 5.86931 17.6428C5.77739 17.5895 5.6752 17.5563 5.56949 17.5455C5.46379 17.5347 5.357 17.5464 5.25618 17.58L1.74993 18.75L2.91899 15.2438C2.95269 15.143 2.9646 15.0362 2.95394 14.9305C2.94327 14.8248 2.91027 14.7226 2.85712 14.6306C1.94772 13.0584 1.5826 11.2299 1.8184 9.42896C2.0542 7.62801 2.87774 5.9552 4.16126 4.67006C5.44479 3.38491 7.11655 2.55925 8.91721 2.32118C10.7179 2.0831 12.5468 2.44591 14.1202 3.35333C15.6936 4.26074 16.9236 5.66204 17.6193 7.33983C18.3151 9.01762 18.4377 10.8781 17.9681 12.6327C17.4986 14.3873 16.4632 15.9379 15.0224 17.0439C13.5817 18.15 11.8163 18.7497 9.99993 18.75Z" fill="white"/>
</svg>
